HIERARCHY
ROOT hip
{
  OFFSET 0 0 0
  CHANNELS 6 Xposition Yposition Zposition Zrotation Yrotation Xrotation
  JOINT abdomen
  {
    OFFSET 0 20.6881 -0.73152
    CHANNELS 3 Zrotation Xrotation Yrotation
    JOINT chest
    {
      OFFSET 0 11.7043 -0.48768
      CHANNELS 3 Zrotation Xrotation Yrotation
      JOINT neck
      {
        OFFSET 0 22.1894 -2.19456
        CHANNELS 3 Zrotation Xrotation Yrotation
        JOINT head
        {
          OFFSET -0.24384 7.07133 1.2192
          CHANNELS 3 Zrotation Xrotation Yrotation
          JOINT leftEye
          {
            OFFSET 4.14528 8.04674 8.04672
            CHANNELS 3 Zrotation Xrotation Yrotation
            End Site
            {
              OFFSET 1 0 0
            }
          }
          JOINT rightEye
          {
            OFFSET -3.6576 8.04674 8.04672
            CHANNELS 3 Zrotation Xrotation Yrotation
            End Site
            {
              OFFSET 1 0 0
            }
          }
        }
      }
      JOINT rCollar
      {
        OFFSET -2.68224 19.2634 -4.8768
        CHANNELS 3 Zrotation Xrotation Yrotation
        JOINT rShldr
        {
          OFFSET -8.77824 -1.95073 1.46304
          CHANNELS 3 Zrotation Xrotation Yrotation
          JOINT rForeArm
          {
            OFFSET -28.1742 -1.7115 0.48768
            CHANNELS 3 Zrotation Xrotation Yrotation
            JOINT rHand
            {
              OFFSET -22.5879 0.773209 7.07136
              CHANNELS 3 Zrotation Xrotation Yrotation
              JOINT rThumb1
              {
                OFFSET -1.2192 -0.487915 3.41376
                CHANNELS 3 Zrotation Xrotation Yrotation
                JOINT rThumb2
                {
                  OFFSET -3.37035 -0.52449 3.41376
                  CHANNELS 3 Zrotation Xrotation Yrotation
                  End Site
                  {
                    OFFSET -1.78271 -1.18214 1.43049
                  }
                }
              }
              JOINT rIndex1
              {
                OFFSET -7.75947 0.938293 5.60832
                CHANNELS 3 Zrotation Xrotation Yrotation
                JOINT rIndex2
                {
                  OFFSET -2.54057 -0.884171 1.56538
                  CHANNELS 3 Zrotation Xrotation Yrotation
                  End Site
                  {
                    OFFSET -1.62519 -0.234802 1.16502
                  }
                }
              }
              JOINT rMid1
              {
                OFFSET -8.24714 1.18213 3.41376
                CHANNELS 3 Zrotation Xrotation Yrotation
                JOINT rMid2
                {
                  OFFSET -3.10165 -0.590103 1.0647
                  CHANNELS 3 Zrotation Xrotation Yrotation
                  End Site
                  {
                    OFFSET -2.48547 -0.328903 0.83742
                  }
                }
              }
              JOINT rRing1
              {
                OFFSET -8.82822 0.546677 1.51678
                CHANNELS 3 Zrotation Xrotation Yrotation
                JOINT rRing2
                {
                  OFFSET -2.60934 -0.819778 -0.0198488
                  CHANNELS 3 Zrotation Xrotation Yrotation
                  End Site
                  {
                    OFFSET -2.33842 -0.294052 0.168128
                  }
                }
              }
              JOINT rPinky1
              {
                OFFSET -8.27202 -0.0477905 -0.4584
                CHANNELS 3 Zrotation Xrotation Yrotation
                JOINT rPinky2
                {
                  OFFSET -1.82734 -0.647385 -0.700984
                  CHANNELS 3 Zrotation Xrotation Yrotation
                  End Site
                  {
                    OFFSET -1.69225 -0.51767 -0.607171
                  }
                }
              }
            }
          }
        }
      }
      JOINT lCollar
      {
        OFFSET 2.68224 19.2634 -4.8768
        CHANNELS 3 Zrotation Xrotation Yrotation
        JOINT lShldr
        {
          OFFSET 8.77824 -1.95073 1.46304
          CHANNELS 3 Zrotation Xrotation Yrotation
          JOINT lForeArm
          {
            OFFSET 28.1742 -1.7115 0.48768
            CHANNELS 3 Zrotation Xrotation Yrotation
            JOINT lHand
            {
              OFFSET 22.5879 0.773209 7.07136
              CHANNELS 3 Zrotation Xrotation Yrotation
              JOINT lThumb1
              {
                OFFSET 1.2192 -0.487915 3.41376
                CHANNELS 3 Zrotation Xrotation Yrotation
                JOINT lThumb2
                {
                  OFFSET 3.37035 -0.52449 3.41376
                  CHANNELS 3 Zrotation Xrotation Yrotation
                  End Site
                  {
                    OFFSET 1.78271 -1.18214 1.43049
                  }
                }
              }
              JOINT lIndex1
              {
                OFFSET 7.75947 0.938293 5.60832
                CHANNELS 3 Zrotation Xrotation Yrotation
                JOINT lIndex2
                {
                  OFFSET 2.54057 -0.884171 1.56538
                  CHANNELS 3 Zrotation Xrotation Yrotation
                  End Site
                  {
                    OFFSET 1.62519 -0.234802 1.16502
                  }
                }
              }
              JOINT lMid1
              {
                OFFSET 8.24714 1.18213 3.41376
                CHANNELS 3 Zrotation Xrotation Yrotation
                JOINT lMid2
                {
                  OFFSET 3.10165 -0.590103 1.0647
                  CHANNELS 3 Zrotation Xrotation Yrotation
                  End Site
                  {
                    OFFSET 2.48547 -0.328903 0.83742
                  }
                }
              }
              JOINT lRing1
              {
                OFFSET 8.82822 0.546677 1.51678
                CHANNELS 3 Zrotation Xrotation Yrotation
                JOINT lRing2
                {
                  OFFSET 2.60934 -0.819778 -0.0198488
                  CHANNELS 3 Zrotation Xrotation Yrotation
                  End Site
                  {
                    OFFSET 2.33842 -0.294052 0.168128
                  }
                }
              }
              JOINT lPinky1
              {
                OFFSET 8.27202 -0.0477905 -0.4584
                CHANNELS 3 Zrotation Xrotation Yrotation
                JOINT lPinky2
                {
                  OFFSET 1.82734 -0.647385 -0.700984
                  CHANNELS 3 Zrotation Xrotation Yrotation
                  End Site
                  {
                    OFFSET 1.69225 -0.51767 -0.607171
                  }
                }
              }
            }
          }
        }
      }
    }
  }
  JOINT rButtock
  {
    OFFSET -8.77824 4.35084 1.2192
    CHANNELS 3 Zrotation Xrotation Yrotation
    JOINT rThigh
    {
      OFFSET 0 -1.70687 -2.19456
      CHANNELS 3 Zrotation Xrotation Yrotation
      JOINT rShin
      {
        OFFSET 0 -36.8199 0.73152
        CHANNELS 3 Zrotation Xrotation Yrotation
        JOINT rFoot
        {
          OFFSET 0.73152 -45.1104 -5.12064
          CHANNELS 3 Zrotation Xrotation Yrotation
          End Site
          {
            OFFSET -1.1221 -3.69964 12.103
          }
        }
      }
    }
  }
  JOINT lButtock
  {
    OFFSET 8.77824 4.35084 1.2192
    CHANNELS 3 Zrotation Xrotation Yrotation
    JOINT lThigh
    {
      OFFSET 0 -1.70687 -2.19456
      CHANNELS 3 Zrotation Xrotation Yrotation
      JOINT lShin
      {
        OFFSET 0 -36.8199 0.73152
        CHANNELS 3 Zrotation Xrotation Yrotation
        JOINT lFoot
        {
          OFFSET -0.73152 -45.1104 -5.12064
          CHANNELS 3 Zrotation Xrotation Yrotation
          End Site
          {
            OFFSET 1.1221 -3.69964 12.103
          }
        }
      }
    }
  }
}
MOTION
Frames:	4
Frame Time:	0.03333
-0.7913420378463343 57.34798812866211 -0.10163067933171988 -22.187691628932953 3.301972635090351 -18.854281157255173 5.380314141511917 11.517260670661926 -7.939169034361839 7.8592707216739655 -10.64121700823307 -4.109761118888855 0.5149988830089569 14.217231273651123 4.859696701169014 7.289722412824631 -16.35217845439911 -1.49960495531559 -4.392499476671219 1.318924566730857 3.8436973839998245 2.2785459458827972 -0.31462412327528 4.845695905387402 -4.777536615729332 -6.5564292669296265 3.7761251628398895 59.845420718193054 27.78987407684326 13.06010216474533 -32.155078053474426 -34.80339467525482 64.64635491371155 0.1909397542476654 -15.768009424209595 -0.4909818805754185 1.3235501199960709 -4.431730806827545 4.489255473017693 5.980990827083588 0.13379059731960297 -0.7011653110384941 5.8613938093185425 -0.26796575635671616 -0.18653422594070435 17.469535768032074 10.282659977674484 -0.612013041973114 -1.2858231738209724 -4.514949694275856 6.288992911577225 6.142053455114365 7.175691649317741 -3.1897248700261116 4.872236363589764 -2.476736381649971 7.255237922072411 21.2362839281559 5.5126043781638145 2.017736993730068 4.353790171444416 2.298249453306198 1.7952454090118408 1.3993647694587708 -2.280823141336441 -1.364908441901207 3.627929426729679 0.3065526857972145 7.284195050597191 -63.57046186923981 33.3570858836174 -23.93330007791519 26.669056713581085 -25.137121081352234 -68.47659766674042 -2.663527764379978 -3.5929282754659653 1.3520653545856476 -6.785994172096252 4.225468263030052 -1.5070470795035362 3.619171343743801 -3.267420418560505 3.0691444873809814 -0.8788412064313889 -2.2112292051315308 3.6684475466609 -3.686951771378517 8.144590705633163 -7.780763804912567 1.3909230194985867 10.301682874560356 2.3666149377822876 6.854563504457474 -5.486826337873936 -0.36151986569166183 1.5953685343265533 -0.571676641702652 0.19457079470157623 -15.281244814395905 12.651942372322083 -6.2308526784181595 2.3863402381539345 5.9114934504032135 0.09387044236063957 6.104039177298546 3.1737586855888367 0.029560625553131104 2.6610638201236725 3.0980566889047623 -4.979966953396797 -39.86445486545563 -36.37540519237518 -44.23447072505951 -33.984932005405426 71.75792634487152 38.79480332136154 -20.89309126138687 -16.068053394556046 -9.696779698133469 -2.306523062288761 0.023561865091323853 -5.314467251300812 50.78202188014984 -21.238626837730408 54.210432171821594 30.949151515960693 62.26826548576355 -33.653740882873535 7.399754673242569 -13.847752958536148 16.40419989824295
-0.8079908686922863 57.349727630615234 -0.12211714964359999 -22.19327598810196 3.298882730305195 -18.842007368803024 5.380657464265823 11.5168958902359 -7.941558882594109 7.858337312936783 -10.640546455979347 -4.109543859958649 0.5182577669620514 14.218422174453735 4.857132509350777 7.28773757815361 -16.351760029792786 -1.4986930042505264 -4.392177611589432 1.3195843901485205 3.8383597880601883 2.2805307805538177 -0.31492989510297775 4.846704415977001 -4.778003320097923 -6.556823551654816 3.7748591601848602 59.84374701976776 27.78918743133545 13.05588036775589 -32.15445041656494 -34.80065882205963 64.64508891105652 0.1894913613796234 -15.764946341514587 -0.49145394936203957 1.3244835287332535 -4.434286952018738 4.491122290492058 5.979129374027252 0.13219468295574188 -0.702865831553936 5.860084891319275 -0.26590581983327866 -0.18642693758010864 17.470018565654755 10.28303548693657 -0.6135258078575134 -1.2844927981495857 -4.5165858417749405 6.290908008813858 6.141141504049301 7.176482900977135 -3.189569301903248 4.874199740588665 -2.477680519223213 7.2591861337423325 21.235114485025406 5.510265491902828 2.0185470208525658 4.352218396961689 2.298598140478134 1.792793869972229 1.4012905955314636 -2.2802652418613434 -1.3658713549375534 3.62815473228693 0.3067994490265846 7.287478074431419 -63.56571435928345 33.35732191801071 -23.937269747257233 26.666814386844635 -25.134798288345337 -68.47757399082184 -2.6618218794465065 -3.600073680281639 1.3540233671665192 -6.788461804389954 4.228493794798851 -1.5047672018408775 3.620394431054592 -3.2679514959454536 3.0687904357910156 -0.8769422024488449 -2.210875153541565 3.6683348938822746 -3.686654046177864 8.14792200922966 -7.779508531093597 1.393186803907156 10.301017686724663 2.369447350502014 6.857546120882034 -5.486783422529697 -0.36379706114530563 1.597074419260025 -0.5707861483097076 0.19525744020938873 -15.279957354068756 12.652701437473297 -6.228395774960518 2.3853853717446327 5.914899855852127 0.09539661929011345 6.102971658110619 3.176269233226776 0.027983486652374268 2.661299854516983 3.0987004190683365 -4.980186894536018 -39.862282276153564 -36.375598311424255 -44.23228204250336 -33.97900968790054 71.75811409950256 38.783725798130035 -20.896250903606415 -16.069533973932266 -9.69947800040245 -2.3082611337304115 0.02480641007423401 -5.315604507923126 50.773717761039734 -21.240220069885254 54.2062371969223 30.93898594379425 62.26594269275665 -33.64561915397644 7.398574501276016 -13.851314932107925 16.405508816242218
-0.8246394164161757 57.34861755371094 -0.14264516439288855 -22.189440429210663 3.3008890226483345 -18.85007545351982 5.380523353815079 11.51693880558014 -7.939957603812218 7.859002500772476 -10.641015842556953 -4.109559953212738 0.5163051187992096 14.217751622200012 4.8587847501039505 7.2889284789562225 -16.352071166038513 -1.4990470558404922 -4.392252713441849 1.3192517962306738 3.8416964560747147 2.2793184220790863 -0.31449001282453537 4.845964126288891 -4.7775741666555405 -6.556657254695892 3.775814026594162 59.8448520898819 27.78970241546631 13.058618903160095 -32.15468645095825 -34.802289605140686 64.64588820934296 0.19056960940361023 -15.76681986451149 -0.49113208428025246 1.3238183408975601 -4.432556927204132 4.489990398287773 5.980140566825867 0.13312004506587982 -0.7016695663332939 5.860996842384338 -0.2671181783080101 -0.18649131059646606 17.46986299753189 10.282928198575974 -0.6125816702842712 -1.285587139427662 -4.515529051423073 6.289636641740799 6.141651123762131 7.176045700907707 -3.1897516921162605 4.872998110949993 -2.4769187718629837 7.256879433989525 21.235886961221695 5.51171388477087 2.018241249024868 4.35345221310854 2.298281639814377 1.794215440750122 1.3999629020690918 -2.2806300222873688 -1.3653375953435898 3.628133274614811 0.3067672625184059 7.285530790686607 -63.56869161128998 33.357225358486176 -23.934694826602936 26.668107211589813 -25.136348605155945 -68.47717702388763 -2.6630235090851784 -3.595428094267845 1.3527090847492218 -6.786927580833435 4.226744994521141 -1.5061485394835472 3.6196326836943626 -3.2677530124783516 3.068956732749939 -0.8779828995466232 -2.210950255393982 3.668275885283947 -3.6867666989564896 8.145813792943954 -7.780313193798065 1.3917008601129055 10.301428064703941 2.367623448371887 6.85565784573555 -5.486826337873936 -0.3623701259493828 1.5962161123752594 -0.5714996159076691 0.19484974443912506 -15.280955135822296 12.65212208032608 -6.229887083172798 2.3858386650681496 5.912877470254898 0.09451417252421379 6.103819236159325 3.17467600107193 0.02895444631576538 2.6611818373203278 3.0983570963144302 -4.980076923966408 -39.8636931180954 -36.37541592121124 -44.2337304353714 -33.98291498422623 71.7579048871994 38.79070222377777 -20.894249975681305 -16.068622022867203 -9.697643369436264 -2.307123877108097 0.02413049340248108 -5.314982235431671 50.77887833118439 -21.2392920255661 54.209144711494446 30.945396423339844 62.267621755599976 -33.650747537612915 7.399196773767471 -13.849002867937088 16.404875814914703
-0.8412876065121964 57.348140716552734 -0.16319076251238585 -22.18805104494095 3.3017151430249214 -18.853283375501633 5.3803785145282745 11.51715338230133 -7.939343377947807 7.859249264001846 -10.64121164381504 -4.109694063663483 0.5153770744800568 14.217354655265808 4.859471395611763 7.28949710726738 -16.35213553905487 -1.4993903785943985 -4.392445832490921 1.3190264906734228 3.8431716710329056 2.2787390649318695 -0.3145436570048332 4.845749549567699 -4.777520522475243 -6.5565043687820435 3.7760822474956512 59.84528124332428 27.789868712425232 13.059753477573395 -32.15493857860565 -34.803088903427124 64.64623153209686 0.1909075677394867 -15.767709016799927 -0.4910140670835972 1.3236252218484879 -4.4319212436676025 4.489448592066765 5.980762839317322 0.1336001604795456 -0.70126723498106 5.861340165138245 -0.2677404507994652 -0.18657714128494263 17.46966451406479 10.28275653719902 -0.6121525168418884 -1.2858231738209724 -4.51508916914463 6.289143115282059 6.141946166753769 7.175841853022575 -3.1897570565342903 4.872418753802776 -2.4767551571130753 7.255709990859032 21.236182004213333 5.512357614934444 2.0179086551070213 4.353720434010029 2.2982333600521088 1.7949450016021729 1.3994747400283813 -2.280801683664322 -1.3650425523519516 3.628009893000126 0.30664924532175064 7.284581288695335 -63.570011258125305 33.3571395277977 -23.93360048532486 26.668783128261566 -25.136917233467102 -68.47683370113373 -2.6634472981095314 -3.5935183614492416 1.3522262871265411 -6.786224842071533 4.225833043456078 -1.5067815408110619 3.619300089776516 -3.2675277069211006 3.0691230297088623 -0.8786105364561081 -2.2111111879348755 3.668377809226513 -3.6869249492883682 8.14491793513298 -7.780651152133942 1.391137596219778 10.301615819334984 2.366850972175598 6.854863911867142 -5.486826337873936 -0.3617129847407341 1.5956689417362213 -0.5716578662395477 0.19467808306217194 -15.281180441379547 12.651974558830261 -6.230632737278938 2.386176623404026 5.911901146173477 0.09404478594660759 6.104055270552635 3.1740108132362366 0.02941042184829712 2.661101371049881 3.0981210619211197 -4.979993775486946 -39.864261746406555 -36.375373005867004 -44.234299063682556 -33.984459936618805 71.75787270069122 38.79374921321869 -20.89337557554245 -16.068206280469894 -9.696967452764511 -2.3066839948296547 0.023728162050247192 -5.314628183841705 50.781185030937195 -21.23879313468933 54.210153222084045 30.948177874088287 62.268142104148865 -33.653022050857544 7.399583011865616 -13.848080188035965 16.404414474964142
